<svg xmlns="http://www.w3.org/2000/svg" version="1.1" xmlns:xlink="http://www.w3.org/1999/xlink" xmlns:svgjs="http://svgjs.dev/svgjs" width="2000" height="494" viewBox="0 0 2000 494"><g transform="matrix(1,0,0,1,-1.2121206421073794,-0.7493201846842226)"><svg viewBox="0 0 396 98" data-background-color="#ffffff" preserveAspectRatio="xMidYMid meet" height="494" width="2000" xmlns="http://www.w3.org/2000/svg" xmlns:xlink="http://www.w3.org/1999/xlink"><g id="tight-bounds" transform="matrix(1,0,0,1,0.23999993396375885,0.14865056295354862)"><svg viewBox="0 0 395.52 97.70269887409292" height="97.70269887409292" width="395.52"><g><svg viewBox="0 0 510.4780920442046 126.1000387055431" height="97.70269887409292" width="395.52"><g transform="matrix(1,0,0,1,0,17.42771880807434)"><svg viewBox="0 0 395.52 91.24460108939442" height="91.24460108939442" width="395.52"><g><svg viewBox="0 0 395.52 91.24460108939442" height="91.24460108939442" width="395.52"><g><svg viewBox="0 0 395.52 91.24460108939442" height="91.24460108939442" width="395.52"><g transform="matrix(1,0,0,1,0,0)"><svg width="395.52" viewBox="1.350000023841858 -35.5 156.02999877929688 36" height="91.24460108939442" data-palette-color="#6b7280"><path d="M9.65 0.5L9.65 0.5Q8.15 0.5 6.85 0.13 5.55-0.25 4.53-1.23 3.5-2.2 2.8-4.05 2.1-5.9 1.73-8.88 1.35-11.85 1.35-16.15L1.35-16.15Q1.35-21.2 1.93-24.65 2.5-28.1 3.53-30.25 4.55-32.4 5.83-33.55 7.1-34.7 8.5-35.1 9.9-35.5 11.2-35.5L11.2-35.5Q13.2-35.5 14.2-35.08 15.2-34.65 15.58-34 15.95-33.35 15.95-32.7L15.95-32.7Q15.95-31.9 15.73-31.15 15.5-30.4 15.25-29.9L15.25-29.9Q15-30.15 14.55-30.38 14.1-30.6 13.5-30.8 12.9-31 12.2-31L12.2-31Q11.3-31 10.43-30.68 9.55-30.35 8.75-29.45 7.95-28.55 7.38-26.93 6.8-25.3 6.48-22.73 6.15-20.15 6.15-16.45L6.15-16.45Q6.15-12.8 6.48-10.48 6.8-8.15 7.38-6.88 7.95-5.6 8.83-5.1 9.7-4.6 10.8-4.6L10.8-4.6Q12.15-4.6 13.3-4.98 14.45-5.35 15.15-5.85L15.15-5.85Q15.4-5.3 15.6-4.6 15.8-3.9 15.8-3.15L15.8-3.15Q15.8-2.1 15.05-1.28 14.3-0.45 12.9 0.03 11.5 0.5 9.65 0.5ZM30.5 0L18.7 0 18.7-33.75Q18.7-34.4 18.9-34.65 19.1-34.9 20.07-34.95 21.05-35 23.3-35L23.3-35 23.3-4.3 31.35-4.3 31.35-0.9Q31.35-0.35 31.12-0.18 30.9 0 30.5 0L30.5 0ZM42.04 0.5L42.04 0.5Q39.04 0.5 37.24-0.33 35.44-1.15 34.54-2.6 33.64-4.05 33.34-5.95 33.04-7.85 33.04-10L33.04-10 33.04-34.1Q33.04-34.55 33.24-34.73 33.44-34.9 34.42-34.95 35.39-35 37.74-35L37.74-35 37.74-9.85Q37.74-8.45 37.89-7.33 38.04-6.2 38.49-5.38 38.94-4.55 39.79-4.13 40.64-3.7 42.04-3.7L42.04-3.7Q43.19-3.7 44.24-3.95 45.29-4.2 45.89-4.5L45.89-4.5 45.89-34.1Q45.89-34.55 46.12-34.73 46.34-34.9 47.29-34.95 48.24-35 50.55-35L50.55-35 50.55-1.35Q49.64-0.75 47.34-0.13 45.04 0.5 42.04 0.5ZM60.84 0L54.44 0 54.44-34.05Q54.44-34.5 54.72-34.75 54.99-35 55.79-35L55.79-35 60.74-35Q62.29-35 63.77-34.68 65.24-34.35 66.47-33.52 67.69-32.7 68.42-31.18 69.14-29.65 69.14-27.25L69.14-27.25Q69.14-24.55 68.39-22.83 67.64-21.1 66.57-20.23 65.49-19.35 64.44-19.2L64.44-19.2Q65.29-19.1 66.29-18.8 67.29-18.5 68.19-17.73 69.09-16.95 69.69-15.55 70.29-14.15 70.29-11.9L70.29-11.9Q70.29-9.55 69.84-7.68 69.39-5.8 68.57-4.38 67.74-2.95 66.59-1.98 65.44-1 63.99-0.5 62.54 0 60.84 0L60.84 0ZM59.09-17L59.09-4 60.94-4Q61.74-4 62.44-4.45 63.14-4.9 63.69-5.83 64.24-6.75 64.54-8.15 64.84-9.55 64.84-11.5L64.84-11.5Q64.84-13.35 64.57-14.45 64.29-15.55 63.79-16.1 63.29-16.65 62.59-16.82 61.89-17 60.99-17L60.99-17 59.09-17ZM59.09-31L59.09-20.85 61.04-20.85Q61.94-20.85 62.64-21.48 63.34-22.1 63.72-23.3 64.09-24.5 64.09-26.3L64.09-26.3Q64.09-28.25 63.67-29.28 63.24-30.3 62.57-30.65 61.89-31 61.09-31L61.09-31 59.09-31ZM89.34 0.5L89.34 0.5Q86.74 0.5 84.94-0.25 83.14-1 82.01-2.85 80.89-4.7 80.41-8.05 79.94-11.4 79.94-16.55L79.94-16.55Q79.94-22.5 80.69-26.23 81.44-29.95 82.81-31.98 84.19-34 86.21-34.75 88.24-35.5 90.74-35.5L90.74-35.5Q93.29-35.5 94.71-34.7 96.14-33.9 96.14-32.8L96.14-32.8Q96.14-32.05 95.94-31.28 95.74-30.5 95.54-29.9L95.54-29.9Q94.89-30.4 93.86-30.7 92.84-31 91.69-31L91.69-31Q89.79-31 88.46-30.28 87.14-29.55 86.34-27.95 85.54-26.35 85.19-23.63 84.84-20.9 84.84-16.9L84.84-16.9Q84.84-12.7 85.11-10.13 85.39-7.55 85.96-6.23 86.54-4.9 87.44-4.45 88.34-4 89.44-4L89.44-4Q90.24-4 90.74-4.17 91.24-4.35 91.54-4.58 91.84-4.8 91.94-4.95L91.94-4.95 91.94-16.95 88.74-16.95 88.74-19.9Q88.74-20.75 89.74-20.75L89.74-20.75 96.24-20.75 96.19-1.5Q95.59-1.05 94.59-0.58 93.59-0.1 92.31 0.2 91.04 0.5 89.34 0.5ZM111.34 0L99.59 0 99.59-34.1Q99.59-34.1 99.71-34.55 99.84-35 100.44-35L100.44-35 112.44-35Q112.44-33.15 112.41-32.3 112.39-31.45 112.21-31.18 112.04-30.9 111.59-30.9L111.59-30.9 104.14-30.9 104.14-4.1 112.19-4.1Q112.19-2.2 112.14-1.33 112.09-0.45 111.94-0.23 111.79 0 111.34 0L111.34 0ZM110.34-16.9L100.09-16.9 100.09-21.1 111.19-21.1Q111.19-18.5 111.09-17.7 110.99-16.9 110.34-16.9L110.34-16.9ZM115.18 0L115.18 0 115.18-32.95Q115.18-34 115.38-34.43 115.58-34.85 116.56-34.93 117.53-35 119.83-35L119.83-35 119.83-0.9Q119.83-0.45 119.63-0.28 119.43-0.1 118.46-0.05 117.48 0 115.18 0ZM129.43 0.5L129.43 0.5Q126.08 0.5 124.48-0.5 122.88-1.5 122.88-2.6L122.88-2.6Q122.88-3.3 123.16-4.23 123.43-5.15 123.98-5.9L123.98-5.9Q124.78-5.2 126.06-4.7 127.33-4.2 128.98-4.2L128.98-4.2Q131.43-4.2 132.46-5.48 133.48-6.75 133.48-8.85L133.48-8.85Q133.48-10.45 132.91-11.8 132.33-13.15 130.78-15L130.78-15 125.93-20.9Q124.23-23.05 123.56-24.75 122.88-26.45 122.88-28.15L122.88-28.15Q122.88-31.4 125.11-33.45 127.33-35.5 131.63-35.5L131.63-35.5Q135.23-35.5 136.73-34.77 138.23-34.05 138.23-32.9L138.23-32.9Q138.23-32.35 137.98-31.65 137.73-30.95 137.13-30.3L137.13-30.3Q136.68-30.65 135.38-31.05 134.08-31.45 132.43-31.45L132.43-31.45Q130.33-31.45 129.08-30.63 127.83-29.8 127.83-28.3L127.83-28.3Q127.83-27 128.38-25.93 128.93-24.85 129.98-23.5L129.98-23.5 135.18-17.35Q137.08-15.05 137.76-13.18 138.43-11.3 138.43-9.05L138.43-9.05Q138.43-6.5 137.61-4.33 136.78-2.15 134.86-0.83 132.93 0.5 129.43 0.5ZM146.08 0L146.08 0 146.08-34.4Q146.08-34.4 146.2-34.48 146.33-34.55 146.98-34.55L146.98-34.55 149.78-34.55Q150.43-34.55 150.53-34.48 150.63-34.4 150.63-34.4L150.63-34.4 150.63-0.85Q150.63-0.45 150.43-0.28 150.23-0.1 149.28-0.05 148.33 0 146.08 0ZM156.53-30.7L139.53-30.7 139.53-34.1Q139.53-35 140.38-35L140.38-35 157.38-35 157.38-31.6Q157.38-31.1 157.2-30.9 157.03-30.7 156.53-30.7L156.53-30.7Z" opacity="1" transform="matrix(1,0,0,1,0,0)" fill="#6b7280" class="undefined-text-0" data-fill-palette-color="primary" id="text-0"></path></svg></g></svg></g></svg></g></svg></g><g transform="matrix(1,0,0,1,417.0606604467799,0)"><svg viewBox="0 0 93.41743159742471 126.1000387055431" height="126.1000387055431" width="93.41743159742471"><g><svg xmlns="http://www.w3.org/2000/svg" xmlns:xlink="http://www.w3.org/1999/xlink" version="1.1" x="0" y="0" viewBox="12.959999084472656 0 74.08200073242188 100" enable-background="new 0 0 100 100" xml:space="preserve" height="126.1000387055431" width="93.41743159742471" class="icon-icon-0" data-fill-palette-color="accent" id="icon-0"><path d="M50 0c-25.437 0-37.04 50.003-37.04 66.604C12.959 85.05 29.541 100 50 100c20.459 0 37.042-14.95 37.042-33.396C87.041 52.016 74.159 0 50 0zM39.488 34.323c-3.556 0-6.437-1.577-6.437-3.521s2.881-3.52 6.437-3.52c3.561 0 6.446 1.576 6.446 3.52S43.048 34.323 39.488 34.323zM60.513 34.323c-3.561 0-6.447-1.577-6.447-3.521s2.887-3.52 6.447-3.52c3.555 0 6.44 1.576 6.44 3.52S64.067 34.323 60.513 34.323z" fill="#6b7280" data-fill-palette-color="accent"></path></svg></g></svg></g></svg></g><defs></defs></svg><rect width="395.52" height="97.70269887409292" fill="none" stroke="none" visibility="hidden"></rect></g></svg></g></svg>