<svg xmlns="http://www.w3.org/2000/svg" version="1.1" xmlns:xlink="http://www.w3.org/1999/xlink" xmlns:svgjs="http://svgjs.dev/svgjs" width="1000" height="244" viewBox="0 0 1000 244"><g transform="matrix(1,0,0,1,-0.6060606060606233,-0.052962388690460216)"><svg viewBox="0 0 396 97" data-background-color="#046380" preserveAspectRatio="xMidYMid meet" height="244" width="1000" xmlns="http://www.w3.org/2000/svg" xmlns:xlink="http://www.w3.org/1999/xlink"><g id="tight-bounds" transform="matrix(1,0,0,1,0.2400000000000091,0.02105827331641308)"><svg viewBox="0 0 395.52 96.95788700658944" height="96.95788700658944" width="395.52"><g><svg viewBox="0 0 1251.1992499607866 306.7193454197699" height="96.95788700658944" width="395.52"><g><svg viewBox="0 0 1251.1992499607866 306.7193454197699" height="306.7193454197699" width="1251.1992499607866"><g><svg viewBox="0 0 1251.1992499607866 306.7193454197699" height="306.7193454197699" width="1251.1992499607866"><g><svg viewBox="0 0 1251.1992499607866 245.67230400000003" height="245.67230400000003" width="1251.1992499607866"><g><svg><g></g><g></g></svg></g><g><svg><g><svg></svg></g><g></g></svg></g><g id="text-0"><svg viewBox="0 0 1251.1992499607866 245.67230400000003" height="245.67230400000003" width="1251.1992499607866"><g transform="matrix(1,0,0,1,0,86.89750495935616)"><svg width="245.672304" viewBox="2.5 -35.45000076293945 124.23999786376953 36.150001525878906" height="71.47729408128772" data-palette-color="#001f3f"><path d="M19.8 0.7L19.8 0.7Q11.35 0.7 6.93-4 2.5-8.7 2.5-17.35L2.5-17.35Q2.5-21.65 3.85-25.03 5.2-28.4 7.55-30.73 9.9-33.05 13.15-34.25 16.4-35.45 20.2-35.45L20.2-35.45Q22.4-35.45 24.2-35.13 26-34.8 27.35-34.38 28.7-33.95 29.6-33.5 30.5-33.05 30.9-32.8L30.9-32.8 28.65-26.5Q27.05-27.35 24.93-27.95 22.8-28.55 20.1-28.55L20.1-28.55Q18.3-28.55 16.57-27.95 14.85-27.35 13.53-26.03 12.2-24.7 11.4-22.6 10.6-20.5 10.6-17.5L10.6-17.5Q10.6-15.1 11.13-13.03 11.65-10.95 12.83-9.45 14-7.95 15.9-7.08 17.8-6.2 20.5-6.2L20.5-6.2Q22.2-6.2 23.55-6.4 24.9-6.6 25.95-6.88 27-7.15 27.8-7.5 28.6-7.85 29.25-8.15L29.25-8.15 31.4-1.9Q29.75-0.9 26.75-0.1 23.75 0.7 19.8 0.7ZM44.2-6.7L59.55-6.7 59.55 0 36.4 0 36.4-34.65 44.2-34.65 44.2-6.7ZM77.59 0.7L77.59 0.7Q73.95 0.7 71.3-0.33 68.64-1.35 66.92-3.18 65.2-5 64.37-7.53 63.55-10.05 63.55-13.1L63.55-13.1 63.55-34.65 71.34-34.65 71.34-13.75Q71.34-11.65 71.82-10.18 72.3-8.7 73.12-7.78 73.95-6.85 75.12-6.45 76.3-6.05 77.7-6.05L77.7-6.05Q80.55-6.05 82.32-7.8 84.09-9.55 84.09-13.75L84.09-13.75 84.09-34.65 91.9-34.65 91.9-13.1Q91.9-10.05 91.05-7.5 90.2-4.95 88.45-3.13 86.7-1.3 84-0.3 81.3 0.7 77.59 0.7ZM110.94 0.45L110.94 0.45Q108.09 0.45 105.27 0.28 102.44 0.1 99.39-0.55L99.39-0.55 99.39-34.15Q101.79-34.6 104.64-34.83 107.49-35.05 109.94-35.05L109.94-35.05Q113.24-35.05 116.02-34.58 118.79-34.1 120.79-32.95 122.79-31.8 123.92-29.93 125.04-28.05 125.04-25.3L125.04-25.3Q125.04-21.15 121.04-18.75L121.04-18.75Q124.34-17.5 125.54-15.35 126.74-13.2 126.74-10.5L126.74-10.5Q126.74-5.05 122.77-2.3 118.79 0.45 110.94 0.45ZM111.89-15.1L106.99-15.1 106.99-6.15Q107.84-6.05 108.84-6 109.84-5.95 111.04-5.95L111.04-5.95Q114.54-5.95 116.69-6.95 118.84-7.95 118.84-10.65L118.84-10.65Q118.84-13.05 117.04-14.08 115.24-15.1 111.89-15.1L111.89-15.1ZM106.99-28.6L106.99-21.05 110.79-21.05Q114.39-21.05 115.94-21.98 117.49-22.9 117.49-24.95L117.49-24.95Q117.49-27.05 115.89-27.9 114.29-28.75 111.19-28.75L111.19-28.75Q110.19-28.75 109.04-28.73 107.89-28.7 106.99-28.6L106.99-28.6Z" opacity="1" transform="matrix(1,0,0,1,0,0)" fill="#001f3f" class="undefined-o-0"></path></svg></g><g><svg xmlns="http://www.w3.org/2000/svg" xmlns:xlink="http://www.w3.org/1999/xlink" version="1.1" x="259.481604" y="0" viewBox="7.600010871887207 17.800003051757812 85.3309326171875 66.70000457763672" enable-background="new 0 0 100 100" xml:space="preserve" height="245.67230400000003" width="314.2945334303899" class="icon-a-0" data-fill-palette-color="accent" id="a-0"><g fill="#001f3f" data-fill-palette-color="accent"><path fill="#001f3f" d="M53.7 73.5c0-0.6-0.4-1-1-1H29.1c-0.6 0-1 0.4-1 1s0.4 1 1 1h23.6C53.3 74.5 53.7 74.1 53.7 73.5z" data-fill-palette-color="accent"></path><path fill="#001f3f" d="M62.4 57.5H38.8c-0.6 0-1 0.4-1 1s0.4 1 1 1h23.6c0.6 0 1-0.4 1-1S62.9 57.5 62.4 57.5z" data-fill-palette-color="accent"></path><path fill="#001f3f" d="M30.4 57.5H18.6c-0.6 0-1 0.4-1 1s0.4 1 1 1h11.8c0.6 0 1-0.4 1-1S30.9 57.5 30.4 57.5z" data-fill-palette-color="accent"></path><path fill="#001f3f" d="M91.3 36.5c-2.2-3.8-6.2-6.1-10.6-6.1-2.1 0-4.2 0.6-6.1 1.6-0.2 0.1-0.4 0.2-0.6 0.4v-5.9c0-4.8-3.9-8.7-8.7-8.7h-49c-4.8 0-8.7 3.9-8.7 8.7v32.4c0 4.8 3.9 8.7 8.7 8.7h44.8L57 75.2c-0.3 0.5-0.1 1.1 0.4 1.3l3.2 1.8c-0.5 0.8-1.9 3.2-4.1 4-1.3 0.5-2.6 0.3-4.1-0.4-0.5-0.2-1.1 0-1.3 0.5s0 1.1 0.5 1.3c1.2 0.6 2.3 0.8 3.4 0.8 0.8 0 1.5-0.1 2.3-0.4 2.9-1 4.6-3.8 5.2-4.9l3.8 2.2c0.2 0.1 0.3 0.1 0.5 0.1 0.1 0 0.2 0 0.3 0 0.3-0.1 0.5-0.2 0.6-0.5l14.4-26.4c0 0 0 0 0 0 1.7-0.2 3.4-0.7 4.8-1.5 2.2-1.3 3.9-3.2 5-5.5 0 0 0 0 0 0 0 0 0 0 0-0.1 0.3-0.6 0.5-1.2 0.7-1.8C93.3 42.6 92.9 39.3 91.3 36.5zM59.2 75.3l4.3-7.8 1.1-2 7.5-13.7 0.2-0.4 0.2-0.4 1.6 0.8 5.6 2.9 0 0L66.3 79.3 59.2 75.3zM80.7 52.8c-0.1 0-0.3 0-0.4 0l-6.2-3.2-1.4-0.7c-0.2-0.3-0.4-0.5-0.6-0.8-0.1-0.1-0.1-0.2-0.2-0.3-1.7-3-1.8-6.6-0.3-9.5l0.5 0.3 2 1 15.5 8.1c-0.9 1.6-2.2 2.9-3.8 3.8C84.2 52.3 82.5 52.8 80.7 52.8zM74.1 37.2l-1.5-0.8c0.4-0.6 0.9-1.1 1.5-1.6 0.5-0.4 1-0.8 1.6-1.1 1.5-0.9 3.3-1.4 5.1-1.4 3.6 0 7 2 8.8 5.1 1.4 2.4 1.7 5.1 1 7.7 0 0.2-0.1 0.4-0.2 0.5L74.1 37.2zM16.5 65.5c-3.7 0-6.7-3-6.7-6.7V26.4c0-3.7 3-6.7 6.7-6.7h49c3.7 0 6.7 3 6.7 6.7V34c-0.7 0.7-1.3 1.5-1.8 2.3 0 0 0 0 0 0 0 0 0 0 0 0-2.2 3.7-2.4 8.4-0.1 12.3 0.2 0.4 0.5 0.7 0.7 1.1l-8.5 15.7H16.5z" data-fill-palette-color="accent"></path></g></svg></g><g transform="matrix(1,0,0,1,587.5854374303899,46.573410064)"><svg width="663.6138125303966" viewBox="4 -35.04999923706055 153.19000244140625 35.04999923706055" height="151.825483872" data-palette-color="#001f3f"><path d="M14.15-35.05L14.15-35.05Q21.95-35.05 26.1-32.27 30.25-29.5 30.25-23.65L30.25-23.65Q30.25-20 28.58-17.73 26.9-15.45 23.75-14.15L23.75-14.15Q24.8-12.85 25.95-11.18 27.1-9.5 28.23-7.68 29.35-5.85 30.4-3.88 31.45-1.9 32.35 0L32.35 0 23.6 0Q22.65-1.7 21.68-3.45 20.7-5.2 19.68-6.85 18.65-8.5 17.65-9.98 16.65-11.45 15.65-12.65L15.65-12.65 11.8-12.65 11.8 0 4 0 4-34.15Q6.55-34.65 9.28-34.85 12-35.05 14.15-35.05ZM14.6-28.4L14.6-28.4Q13.75-28.4 13.08-28.35 12.4-28.3 11.8-28.25L11.8-28.25 11.8-18.85 14-18.85Q18.4-18.85 20.3-19.95 22.2-21.05 22.2-23.7L22.2-23.7Q22.2-26.25 20.28-27.33 18.35-28.4 14.6-28.4ZM61.9 0L37.35 0 37.35-34.65 60.75-34.65 60.75-28.1 45.15-28.1 45.15-21.3 59-21.3 59-14.9 45.15-14.9 45.15-6.55 61.9-6.55 61.9 0ZM75.45-6.7L90.8-6.7 90.8 0 67.65 0 67.65-34.65 75.45-34.65 75.45-6.7ZM128.89 0L120.54 0Q119.99-1.8 119.32-3.7 118.64-5.6 117.99-7.5L117.99-7.5 104.49-7.5Q103.84-5.6 103.17-3.7 102.49-1.8 101.94 0L101.94 0 93.84 0Q95.79-5.6 97.54-10.35 99.29-15.1 100.97-19.3 102.64-23.5 104.27-27.28 105.89-31.05 107.64-34.65L107.64-34.65 115.09-34.65Q116.79-31.05 118.44-27.28 120.09-23.5 121.77-19.3 123.44-15.1 125.19-10.35 126.94-5.6 128.89 0L128.89 0ZM111.19-26.8L111.19-26.8Q110.94-26.05 110.44-24.75 109.94-23.45 109.29-21.75 108.64-20.05 107.87-18 107.09-15.95 106.29-13.7L106.29-13.7 116.14-13.7Q115.34-15.95 114.59-18 113.84-20.05 113.17-21.75 112.49-23.45 111.99-24.75 111.49-26.05 111.19-26.8ZM141.09-20.4L141.09-20.4Q143.19-23.95 145.09-27.5 146.99-31.05 148.59-34.65L148.59-34.65 157.19-34.65Q154.34-29.05 151.29-23.8 148.24-18.55 144.84-13.25L144.84-13.25 144.84 0 137.04 0 137.04-13.15Q133.64-18.45 130.57-23.75 127.49-29.05 124.64-34.65L124.64-34.65 133.69-34.65Q135.29-31.05 137.14-27.5 138.99-23.95 141.09-20.4Z" opacity="1" transform="matrix(1,0,0,1,0,0)" fill="#001f3f" class="undefined-o-1"></path></svg></g></svg></g></svg></g><g transform="matrix(1,0,0,1,308.82423005888467,262.5463776775341)"><svg viewBox="0 0 633.5507898430172 44.17296774223581" height="44.17296774223581" width="633.5507898430172"><g transform="matrix(1,0,0,1,0,0)"><svg width="633.5507898430172" viewBox="2.4000000953674316 -39.5 573.6499633789062 40" height="44.17296774223581" data-palette-color="#001f3f"><path d="M27.15-19.1L27.15-19.1Q26.25-18.4 25.05-17.9 23.85-17.4 22.1-17.05L22.1-17.05Q22.55-16.6 23.08-15.9 23.6-15.2 24.1-14.35L24.1-14.35 30.75-3.1 35.2-2.15 35.2 0 24.9 0 24.9-2.15 17.7-16.15 11.6-16.15 11.6-3.2 16.35-2.15 16.35 0 2.4 0 2.4-2.15 6.6-3.2 6.6-32.8 2.4-33.85 2.4-36 19.6-36Q22-36 23.8-35.55 25.6-35.1 27.05-34.1L27.05-34.1Q28.9-32.9 29.93-30.8 30.95-28.7 30.95-26.6L30.95-26.6Q30.95-24.5 29.93-22.48 28.9-20.45 27.15-19.1ZM11.6-33.1L11.6-19.05 18.75-19.05Q21.5-19.05 23.3-20.6L23.3-20.6Q24.3-21.5 24.88-23.03 25.45-24.55 25.45-26.3L25.45-26.3Q25.45-28.05 24.88-29.48 24.3-30.9 23.25-31.8L23.25-31.8Q22.4-32.5 21.28-32.8 20.15-33.1 18.55-33.1L18.55-33.1 11.6-33.1ZM59.6-13.2L59.6-13.2 42.15-13.2Q42.15-9.55 43.15-7.15L43.15-7.15Q44.15-4.85 46-3.85 47.85-2.85 50-2.85L50-2.85Q52.35-2.85 54.3-3.83 56.25-4.8 57.8-6.5L57.8-6.5 59.4-5.3Q57.65-2.9 55.15-1.2 52.65 0.5 48.7 0.5L48.7 0.5Q45.25 0.5 42.6-0.98 39.95-2.45 38.55-5.3L38.55-5.3Q37.8-6.85 37.45-8.75 37.1-10.65 37.1-12.8L37.1-12.8Q37.1-19.8 40.32-23.65 43.55-27.5 49.1-27.5L49.1-27.5Q54.2-27.5 56.97-24.33 59.75-21.15 59.75-15.55L59.75-15.55Q59.75-15.05 59.72-14.63 59.7-14.2 59.6-13.2ZM48.8-24.8L48.8-24.8Q42.8-24.8 42.2-15.65L42.2-15.65 54.7-15.65 54.7-17.3Q54.7-20.9 53.17-22.85 51.65-24.8 48.8-24.8ZM72.3-24.95L70.1-24 76.2-16.05 82.05-24 79.05-24.95 79.05-27 88.45-27 88.45-24.95 85.6-24 77.5-14.35 86.35-2.95 89.1-2.05 89.1 0 78.15 0 78.15-2.05 81-3 74.55-11.3 68.35-3 71.35-2.05 71.35 0 61.95 0 61.95-2.05 64.75-3 73.25-13 64.75-24 61.95-24.95 61.95-27 72.3-27 72.3-24.95ZM95.34-3L95.34-24 91.49-24.95 91.49-27 100.19-27 100.19-3 104.04-2.05 104.04 0 91.49 0 91.49-2.05 95.34-3ZM94.64-35.05L94.64-35.05Q94.64-36.5 95.49-37.35 96.34-38.2 97.74-38.2L97.74-38.2Q99.19-38.2 100.04-37.35 100.89-36.5 100.89-35.05L100.89-35.05Q100.89-33.65 100.04-32.8 99.19-31.95 97.74-31.95L97.74-31.95Q96.29-31.95 95.47-32.77 94.64-33.6 94.64-35.05ZM130.14-13.2L130.14-13.2 112.69-13.2Q112.69-9.55 113.69-7.15L113.69-7.15Q114.69-4.85 116.54-3.85 118.39-2.85 120.54-2.85L120.54-2.85Q122.89-2.85 124.84-3.83 126.79-4.8 128.34-6.5L128.34-6.5 129.94-5.3Q128.19-2.9 125.69-1.2 123.19 0.5 119.24 0.5L119.24 0.5Q115.79 0.5 113.14-0.98 110.49-2.45 109.09-5.3L109.09-5.3Q108.34-6.85 107.99-8.75 107.64-10.65 107.64-12.8L107.64-12.8Q107.64-19.8 110.87-23.65 114.09-27.5 119.64-27.5L119.64-27.5Q124.74-27.5 127.52-24.33 130.29-21.15 130.29-15.55L130.29-15.55Q130.29-15.05 130.27-14.63 130.24-14.2 130.14-13.2ZM119.34-24.8L119.34-24.8Q113.34-24.8 112.74-15.65L112.74-15.65 125.24-15.65 125.24-17.3Q125.24-20.9 123.72-22.85 122.19-24.8 119.34-24.8ZM163.74-33.8L163.74-33.8Q161.28-33.8 159.56-33.05 157.84-32.3 156.63-30.7L156.63-30.7Q155.13-28.75 154.28-25.58 153.44-22.4 153.44-18.6L153.44-18.6Q153.44-15.05 154.19-11.95 154.94-8.85 156.28-6.75L156.28-6.75Q157.63-4.65 159.56-3.68 161.49-2.7 164.38-2.7L164.38-2.7Q173.38-2.7 174.84-11.15L174.84-11.15 177.59-11.15Q175.34 0.5 163.88 0.5L163.88 0.5Q156.99 0.5 152.88-3.5L152.88-3.5Q150.44-5.9 149.13-9.55 147.84-13.2 147.84-17.65L147.84-17.65Q147.84-22.7 149.49-26.8 151.13-30.9 154.13-33.35L154.13-33.35Q157.94-36.5 164.19-36.5L164.19-36.5Q167.28-36.5 169.24-35.7 171.19-34.9 173.09-32.85L173.09-32.85 174.09-36 176.84-36 176.84-24.95 173.78-24.95Q173.09-29.35 170.56-31.58 168.03-33.8 163.74-33.8ZM206.18-13.75L206.18-13.75Q206.18-10.5 205.21-7.58 204.23-4.65 202.48-2.75L202.48-2.75Q200.98-1.1 198.78-0.3 196.58 0.5 193.78 0.5L193.78 0.5Q191.03 0.5 188.88-0.28 186.73-1.05 185.23-2.65L185.23-2.65Q183.53-4.5 182.61-7.23 181.68-9.95 181.68-13.15L181.68-13.15Q181.68-16.4 182.63-19.38 183.58-22.35 185.38-24.25L185.38-24.25Q186.98-25.95 189.11-26.73 191.23-27.5 193.98-27.5L193.98-27.5Q196.73-27.5 198.93-26.73 201.13-25.95 202.63-24.35L202.63-24.35Q204.38-22.5 205.28-19.73 206.18-16.95 206.18-13.75ZM187.03-13.7L187.03-13.7Q187.03-10.65 187.51-8.43 187.98-6.2 188.83-4.75L188.83-4.75Q189.68-3.5 190.86-2.8 192.03-2.1 193.93-2.1L193.93-2.1Q197.38-2.1 199.08-4.45L199.08-4.45Q199.98-5.75 200.41-8.05 200.83-10.35 200.83-13.35L200.83-13.35Q200.83-16.35 200.36-18.6 199.88-20.85 199.03-22.25L199.03-22.25Q198.23-23.55 197.01-24.23 195.78-24.9 193.88-24.9L193.88-24.9Q190.38-24.9 188.83-22.6L188.83-22.6Q187.03-19.8 187.03-13.7ZM210.28-2.05L214.13-3 214.13-24 210.28-24.95 210.28-27 217.48-27 218.58-22 218.78-22Q220.28-24.55 222.83-26.03 225.38-27.5 228.28-27.5L228.28-27.5Q232.43-27.5 234.43-24.8L234.43-24.8Q235.43-23.4 235.85-20.88 236.28-18.35 236.28-14.05L236.28-14.05 236.28-3 240.13-2.05 240.13 0 228.08 0 228.08-2.05 231.43-3 231.43-14.15Q231.43-17.4 231.25-19 231.08-20.6 230.63-21.5L230.63-21.5Q230.03-22.7 228.91-23.33 227.78-23.95 226.23-23.95L226.23-23.95Q223.33-23.95 221.23-22.1L221.23-22.1Q219.18-20.25 218.98-16.35L218.98-16.35 218.98-3 222.33-2.05 222.33 0 210.28 0 210.28-2.05ZM246.98-24.5L242.13-24.5 242.13-26.3 246.98-27 246.98-27.5Q246.98-33.25 249.48-36.38 251.98-39.5 256.23-39.5L256.23-39.5Q259.18-39.5 260.95-38.08 262.73-36.65 262.73-34.45L262.73-34.45Q262.73-33.05 262.03-32.33 261.33-31.6 260.13-31.6L260.13-31.6Q258.98-31.6 258.28-32.25 257.58-32.9 257.58-34.1L257.58-34.1Q257.58-35.4 258.38-36.7L258.38-36.7Q257.53-37.6 256.08-37.6L256.08-37.6Q254.93-37.6 254.08-37.1L254.08-37.1Q252.98-36.45 252.5-35.25 252.03-34.05 251.93-32.58 251.83-31.1 251.83-29.5L251.83-29.5 251.83-27 258.23-27 258.23-24.5 251.83-24.5 251.83-3 257.23-2.05 257.23 0 243.13 0 243.13-2.05 246.98-3 246.98-24.5ZM283.83-13.2L283.83-13.2 266.38-13.2Q266.38-9.55 267.38-7.15L267.38-7.15Q268.38-4.85 270.23-3.85 272.08-2.85 274.23-2.85L274.23-2.85Q276.58-2.85 278.53-3.83 280.48-4.8 282.03-6.5L282.03-6.5 283.63-5.3Q281.88-2.9 279.38-1.2 276.88 0.5 272.93 0.5L272.93 0.5Q269.48 0.5 266.83-0.98 264.18-2.45 262.78-5.3L262.78-5.3Q262.03-6.85 261.68-8.75 261.33-10.65 261.33-12.8L261.33-12.8Q261.33-19.8 264.55-23.65 267.78-27.5 273.33-27.5L273.33-27.5Q278.43-27.5 281.2-24.33 283.98-21.15 283.98-15.55L283.98-15.55Q283.98-15.05 283.95-14.63 283.93-14.2 283.83-13.2ZM273.03-24.8L273.03-24.8Q267.03-24.8 266.43-15.65L266.43-15.65 278.93-15.65 278.93-17.3Q278.93-20.9 277.4-22.85 275.88-24.8 273.03-24.8ZM303.02-24.1L303.02-24.1Q302.82-24.25 302.55-24.33 302.27-24.4 302.02-24.4L302.02-24.4Q301.42-24.4 300.72-23.85 300.02-23.3 299.37-22.38 298.72-21.45 298.17-20.25L298.17-20.25Q297.47-18.55 297.07-16.53 296.67-14.5 296.67-12.35L296.67-12.35 296.67-3 302.07-2.05 302.07 0 287.97 0 287.97-2.05 291.82-3 291.82-24 287.97-24.95 287.97-27 295.17-27 296.27-20.4 296.47-20.4Q297.62-23.8 299.57-25.65 301.52-27.5 303.87-27.5L303.87-27.5Q305.82-27.5 307.12-26.28 308.42-25.05 308.42-23L308.42-23Q308.42-21.5 307.65-20.63 306.87-19.75 305.57-19.75L305.57-19.75Q304.27-19.75 303.52-20.58 302.77-21.4 302.77-22.75L302.77-22.75Q302.77-23.05 302.82-23.33 302.87-23.6 303.02-24.1ZM333.67-13.2L333.67-13.2 316.22-13.2Q316.22-9.55 317.22-7.15L317.22-7.15Q318.22-4.85 320.07-3.85 321.92-2.85 324.07-2.85L324.07-2.85Q326.42-2.85 328.37-3.83 330.32-4.8 331.87-6.5L331.87-6.5 333.47-5.3Q331.72-2.9 329.22-1.2 326.72 0.5 322.77 0.5L322.77 0.5Q319.32 0.5 316.67-0.98 314.02-2.45 312.62-5.3L312.62-5.3Q311.87-6.85 311.52-8.75 311.17-10.65 311.17-12.8L311.17-12.8Q311.17-19.8 314.39-23.65 317.62-27.5 323.17-27.5L323.17-27.5Q328.27-27.5 331.05-24.33 333.82-21.15 333.82-15.55L333.82-15.55Q333.82-15.05 333.8-14.63 333.77-14.2 333.67-13.2ZM322.87-24.8L322.87-24.8Q316.87-24.8 316.27-15.65L316.27-15.65 328.77-15.65 328.77-17.3Q328.77-20.9 327.25-22.85 325.72-24.8 322.87-24.8ZM337.82-2.05L341.67-3 341.67-24 337.82-24.95 337.82-27 345.02-27 346.12-22 346.32-22Q347.82-24.55 350.37-26.03 352.92-27.5 355.82-27.5L355.82-27.5Q359.97-27.5 361.97-24.8L361.97-24.8Q362.97-23.4 363.39-20.88 363.82-18.35 363.82-14.05L363.82-14.05 363.82-3 367.67-2.05 367.67 0 355.62 0 355.62-2.05 358.97-3 358.97-14.15Q358.97-17.4 358.79-19 358.62-20.6 358.17-21.5L358.17-21.5Q357.57-22.7 356.44-23.33 355.32-23.95 353.77-23.95L353.77-23.95Q350.87-23.95 348.77-22.1L348.77-22.1Q346.72-20.25 346.52-16.35L346.52-16.35 346.52-3 349.87-2.05 349.87 0 337.82 0 337.82-2.05ZM383.87-27.5L383.87-27.5Q386.76-27.5 388.89-26.53 391.01-25.55 392.19-23.8 393.37-22.05 393.37-19.7L393.37-19.7Q393.37-17.85 392.59-16.85 391.81-15.85 390.26-15.85L390.26-15.85Q388.87-15.85 388.04-16.65 387.21-17.45 387.21-18.8L387.21-18.8Q387.21-20.05 387.89-20.95 388.56-21.85 389.71-22.2L389.71-22.2Q388.96-23.65 387.59-24.3 386.21-24.95 384.16-24.95L384.16-24.95Q380.06-24.95 378.19-22.28 376.31-19.6 376.31-13.95L376.31-13.95Q376.31-11.5 376.64-9.73 376.96-7.95 377.62-6.7L377.62-6.7Q378.62-4.85 380.26-3.85 381.91-2.85 384.16-2.85L384.16-2.85Q386.46-2.85 388.56-3.85 390.66-4.85 392.16-6.7L392.16-6.7 393.66-5.5Q391.66-2.45 389.06-0.98 386.46 0.5 382.96 0.5L382.96 0.5Q379.46 0.5 376.89-0.93 374.31-2.35 372.87-5.1L372.87-5.1Q371.06-8.45 371.06-13.2L371.06-13.2Q371.06-17.55 372.64-20.75 374.21-23.95 377.12-25.73 380.01-27.5 383.87-27.5ZM420.41-13.2L420.41-13.2 402.96-13.2Q402.96-9.55 403.96-7.15L403.96-7.15Q404.96-4.85 406.81-3.85 408.66-2.85 410.81-2.85L410.81-2.85Q413.16-2.85 415.11-3.83 417.06-4.8 418.61-6.5L418.61-6.5 420.21-5.3Q418.46-2.9 415.96-1.2 413.46 0.5 409.51 0.5L409.51 0.5Q406.06 0.5 403.41-0.98 400.76-2.45 399.36-5.3L399.36-5.3Q398.61-6.85 398.26-8.75 397.91-10.65 397.91-12.8L397.91-12.8Q397.91-19.8 401.14-23.65 404.36-27.5 409.91-27.5L409.91-27.5Q415.01-27.5 417.79-24.33 420.56-21.15 420.56-15.55L420.56-15.55Q420.56-15.05 420.54-14.63 420.51-14.2 420.41-13.2ZM409.61-24.8L409.61-24.8Q403.61-24.8 403.01-15.65L403.01-15.65 415.51-15.65 415.51-17.3Q415.51-20.9 413.99-22.85 412.46-24.8 409.61-24.8ZM462.61-19.1L462.61-19.1Q461.71-18.4 460.51-17.9 459.31-17.4 457.56-17.05L457.56-17.05Q458.01-16.6 458.53-15.9 459.06-15.2 459.56-14.35L459.56-14.35 466.21-3.1 470.66-2.15 470.66 0 460.36 0 460.36-2.15 453.16-16.15 447.06-16.15 447.06-3.2 451.81-2.15 451.81 0 437.86 0 437.86-2.15 442.06-3.2 442.06-32.8 437.86-33.85 437.86-36 455.06-36Q457.46-36 459.26-35.55 461.06-35.1 462.51-34.1L462.51-34.1Q464.36-32.9 465.38-30.8 466.41-28.7 466.41-26.6L466.41-26.6Q466.41-24.5 465.38-22.48 464.36-20.45 462.61-19.1ZM447.06-33.1L447.06-19.05 454.21-19.05Q456.96-19.05 458.76-20.6L458.76-20.6Q459.76-21.5 460.33-23.03 460.91-24.55 460.91-26.3L460.91-26.3Q460.91-28.05 460.33-29.48 459.76-30.9 458.71-31.8L458.71-31.8Q457.86-32.5 456.73-32.8 455.61-33.1 454.01-33.1L454.01-33.1 447.06-33.1ZM496.91-13.75L496.91-13.75Q496.91-10.5 495.93-7.58 494.96-4.65 493.21-2.75L493.21-2.75Q491.71-1.1 489.5-0.3 487.31 0.5 484.5 0.5L484.5 0.5Q481.75 0.5 479.61-0.28 477.46-1.05 475.96-2.65L475.96-2.65Q474.25-4.5 473.33-7.23 472.41-9.95 472.41-13.15L472.41-13.15Q472.41-16.4 473.36-19.38 474.31-22.35 476.11-24.25L476.11-24.25Q477.71-25.95 479.83-26.73 481.96-27.5 484.71-27.5L484.71-27.5Q487.46-27.5 489.66-26.73 491.86-25.95 493.36-24.35L493.36-24.35Q495.11-22.5 496-19.73 496.91-16.95 496.91-13.75ZM477.75-13.7L477.75-13.7Q477.75-10.65 478.23-8.43 478.71-6.2 479.56-4.75L479.56-4.75Q480.41-3.5 481.58-2.8 482.75-2.1 484.66-2.1L484.66-2.1Q488.11-2.1 489.81-4.45L489.81-4.45Q490.71-5.75 491.13-8.05 491.56-10.35 491.56-13.35L491.56-13.35Q491.56-16.35 491.08-18.6 490.61-20.85 489.75-22.25L489.75-22.25Q488.96-23.55 487.73-24.23 486.5-24.9 484.61-24.9L484.61-24.9Q481.11-24.9 479.56-22.6L479.56-22.6Q477.75-19.8 477.75-13.7ZM526-13.75L526-13.75Q526-10.5 525.03-7.58 524.05-4.65 522.3-2.75L522.3-2.75Q520.8-1.1 518.6-0.3 516.4 0.5 513.6 0.5L513.6 0.5Q510.85 0.5 508.7-0.28 506.55-1.05 505.05-2.65L505.05-2.65Q503.35-4.5 502.43-7.23 501.5-9.95 501.5-13.15L501.5-13.15Q501.5-16.4 502.45-19.38 503.4-22.35 505.2-24.25L505.2-24.25Q506.8-25.95 508.93-26.73 511.05-27.5 513.8-27.5L513.8-27.5Q516.55-27.5 518.75-26.73 520.95-25.95 522.45-24.35L522.45-24.35Q524.2-22.5 525.1-19.73 526-16.95 526-13.75ZM506.85-13.7L506.85-13.7Q506.85-10.65 507.33-8.43 507.8-6.2 508.65-4.75L508.65-4.75Q509.5-3.5 510.68-2.8 511.85-2.1 513.75-2.1L513.75-2.1Q517.2-2.1 518.9-4.45L518.9-4.45Q519.8-5.75 520.23-8.05 520.65-10.35 520.65-13.35L520.65-13.35Q520.65-16.35 520.18-18.6 519.7-20.85 518.85-22.25L518.85-22.25Q518.05-23.55 516.83-24.23 515.6-24.9 513.7-24.9L513.7-24.9Q510.2-24.9 508.65-22.6L508.65-22.6Q506.85-19.8 506.85-13.7ZM530.1-2.05L533.95-3 533.95-24 530.1-24.95 530.1-27 537.3-27 538.4-22 538.6-22Q540.05-24.5 542.47-26 544.9-27.5 547.65-27.5L547.65-27.5Q549.7-27.5 551.3-26.73 552.9-25.95 553.65-24.8L553.65-24.8Q554.45-23.55 554.95-21.5L554.95-21.5Q556.55-24.3 559.1-25.9 561.65-27.5 564.55-27.5L564.55-27.5Q566.55-27.5 568.15-26.73 569.75-25.95 570.6-24.6L570.6-24.6Q571.2-23.65 571.55-22.15 571.9-20.65 572.05-18.28 572.2-15.9 572.2-12.25L572.2-12.25 572.2-3 576.05-2.05 576.05 0 564 0 564-2.05 567.35-3 567.35-14.15Q567.35-17.4 567.17-19 567-20.6 566.55-21.5L566.55-21.5Q565.95-22.7 564.88-23.33 563.8-23.95 562.35-23.95L562.35-23.95Q561.1-23.95 559.9-23.45 558.7-22.95 557.75-22.1L557.75-22.1Q556.65-21.1 556.13-19.75 555.6-18.4 555.5-16.35L555.5-16.35 555.5-3 558.85-2.05 558.85 0 547.3 0 547.3-2.05 550.65-3 550.65-14.15Q550.65-17.4 550.47-19 550.3-20.6 549.85-21.5L549.85-21.5Q549.25-22.7 548.17-23.33 547.1-23.95 545.65-23.95L545.65-23.95Q544.4-23.95 543.2-23.45 542-22.95 541.05-22.1L541.05-22.1Q539.95-21.1 539.42-19.75 538.9-18.4 538.8-16.35L538.8-16.35 538.8-3 542.15-2.05 542.15 0 530.1 0 530.1-2.05Z" opacity="1" transform="matrix(1,0,0,1,0,0)" fill="#001f3f" class="undefined-text-1" data-fill-palette-color="secondary" id="text-1"></path></svg></g></svg></g></svg></g></svg></g><g></g></svg></g><defs></defs></svg><rect width="395.52" height="96.95788700658944" fill="none" stroke="none" visibility="hidden"></rect></g></svg></g></svg>